<svg width="317" height="81" viewBox="0 0 317 81" fill="none" xmlns="http://www.w3.org/2000/svg">
<circle cx="31" cy="38" r="12.5" fill="#00695C"/>
<circle cx="31" cy="38" r="12.5" fill="#00695C"/>
<circle cx="31" cy="38" r="12.5" fill="#00695C"/>
<circle cx="55.25" cy="16.75" r="6.75" fill="#00695C"/>
<circle cx="55.25" cy="16.75" r="6.75" fill="#00695C"/>
<circle cx="55.25" cy="16.75" r="6.75" fill="#00695C"/>
<circle cx="50.25" cy="55.75" r="5.25" fill="#00695C"/>
<circle cx="50.25" cy="55.75" r="5.25" fill="#00695C"/>
<circle cx="50.25" cy="55.75" r="5.25" fill="#00695C"/>
<circle cx="8.5" cy="8.5" r="8.5" fill="#00695C"/>
<circle cx="8.5" cy="8.5" r="8.5" fill="#00695C"/>
<circle cx="8.5" cy="8.5" r="8.5" fill="#00695C"/>
<circle cx="18" cy="71.5" r="9.5" fill="#00695C"/>
<circle cx="18" cy="71.5" r="9.5" fill="#00695C"/>
<circle cx="18" cy="71.5" r="9.5" fill="#00695C"/>
<line x1="12.34" y1="14.4815" x2="24.1114" y2="30.6582" stroke="#00695C" stroke-width="1.5"/>
<line x1="12.34" y1="14.4815" x2="24.1114" y2="30.6582" stroke="url(#paint0_linear)" stroke-width="1.5"/>
<line x1="27.6249" y1="48.2821" x2="19.3198" y2="66.483" stroke="#00695C" stroke-width="1.5"/>
<line x1="27.6249" y1="48.2821" x2="19.3198" y2="66.483" stroke="url(#paint1_linear)" stroke-width="1.5"/>
<line x1="34.4433" y1="43.2227" x2="50.0323" y2="55.762" stroke="#00695C" stroke-width="1.5"/>
<line x1="34.4433" y1="43.2227" x2="50.0323" y2="55.762" stroke="url(#paint2_linear)" stroke-width="1.5"/>
<line x1="36.1753" y1="32.7522" x2="52.0814" y2="20.6177" stroke="#00695C" stroke-width="1.5"/>
<line x1="36.1753" y1="32.7522" x2="52.0814" y2="20.6177" stroke="url(#paint3_linear)" stroke-width="1.5"/>
<path d="M99.8672 48.6426C99 49.8848 97.7871 50.8164 96.2285 51.4375C94.6816 52.0469 92.877 52.3516 90.8145 52.3516C88.7285 52.3516 86.877 51.8652 85.2598 50.8926C83.6426 49.9082 82.3887 48.5137 81.498 46.709C80.6191 44.9043 80.168 42.8125 80.1445 40.4336V38.2012C80.1445 34.3457 81.041 31.3574 82.834 29.2363C84.6387 27.1152 87.1699 26.0547 90.4277 26.0547C93.0996 26.0547 95.25 26.7402 96.8789 28.1113C98.5078 29.4707 99.5039 31.4043 99.8672 33.9121H96.4922C95.8594 30.5254 93.8438 28.832 90.4453 28.832C88.1836 28.832 86.4668 29.6289 85.2949 31.2227C84.1348 32.8047 83.5488 35.1016 83.5371 38.1133V40.2051C83.5371 43.0762 84.1934 45.3613 85.5059 47.0605C86.8184 48.748 88.5938 49.5918 90.832 49.5918C92.0977 49.5918 93.2051 49.4512 94.1543 49.1699C95.1035 48.8887 95.8887 48.4141 96.5098 47.7461V41.998H90.5859V39.2559H99.8672V48.6426ZM116.742 50.1191C115.477 51.6074 113.619 52.3516 111.17 52.3516C109.143 52.3516 107.596 51.7656 106.529 50.5938C105.475 49.4102 104.941 47.6641 104.93 45.3555V32.9805H108.182V45.2676C108.182 48.1504 109.354 49.5918 111.697 49.5918C114.182 49.5918 115.834 48.666 116.654 46.8145V32.9805H119.906V52H116.812L116.742 50.1191ZM128.396 52H125.145V32.9805H128.396V52ZM124.881 27.9355C124.881 27.4082 125.039 26.9629 125.355 26.5996C125.684 26.2363 126.164 26.0547 126.797 26.0547C127.43 26.0547 127.91 26.2363 128.238 26.5996C128.566 26.9629 128.73 27.4082 128.73 27.9355C128.73 28.4629 128.566 28.9023 128.238 29.2539C127.91 29.6055 127.43 29.7812 126.797 29.7812C126.164 29.7812 125.684 29.6055 125.355 29.2539C125.039 28.9023 124.881 28.4629 124.881 27.9355ZM132.826 42.332C132.826 39.4141 133.518 37.0703 134.9 35.3008C136.283 33.5195 138.094 32.6289 140.332 32.6289C142.559 32.6289 144.322 33.3906 145.623 34.9141V25H148.875V52H145.887L145.729 49.9609C144.428 51.5547 142.617 52.3516 140.297 52.3516C138.094 52.3516 136.295 51.4492 134.9 49.6445C133.518 47.8398 132.826 45.4844 132.826 42.5781V42.332ZM136.078 42.7012C136.078 44.8574 136.523 46.5449 137.414 47.7637C138.305 48.9824 139.535 49.5918 141.105 49.5918C143.168 49.5918 144.674 48.666 145.623 46.8145V38.0781C144.65 36.2852 143.156 35.3887 141.141 35.3887C139.547 35.3887 138.305 36.0039 137.414 37.2344C136.523 38.4648 136.078 40.2871 136.078 42.7012ZM161.83 52.3516C159.252 52.3516 157.154 51.5078 155.537 49.8203C153.92 48.1211 153.111 45.8535 153.111 43.0176V42.4199C153.111 40.5332 153.469 38.8516 154.184 37.375C154.91 35.8867 155.918 34.7266 157.207 33.8945C158.508 33.0508 159.914 32.6289 161.426 32.6289C163.898 32.6289 165.82 33.4434 167.191 35.0723C168.562 36.7012 169.248 39.0332 169.248 42.0684V43.4219H156.363C156.41 45.2969 156.955 46.8145 157.998 47.9746C159.053 49.123 160.389 49.6973 162.006 49.6973C163.154 49.6973 164.127 49.4629 164.924 48.9941C165.721 48.5254 166.418 47.9043 167.016 47.1309L169.002 48.6777C167.408 51.127 165.018 52.3516 161.83 52.3516ZM161.426 35.3008C160.113 35.3008 159.012 35.7812 158.121 36.7422C157.23 37.6914 156.68 39.0273 156.469 40.75H165.996V40.5039C165.902 38.8516 165.457 37.5742 164.66 36.6719C163.863 35.7578 162.785 35.3008 161.426 35.3008ZM184.102 46.9551C184.102 46.0762 183.768 45.3965 183.1 44.916C182.443 44.4238 181.289 44.002 179.637 43.6504C177.996 43.2988 176.689 42.877 175.717 42.3848C174.756 41.8926 174.041 41.3066 173.572 40.627C173.115 39.9473 172.887 39.1387 172.887 38.2012C172.887 36.6426 173.543 35.3242 174.855 34.2461C176.18 33.168 177.867 32.6289 179.918 32.6289C182.074 32.6289 183.82 33.1855 185.156 34.2988C186.504 35.4121 187.178 36.8359 187.178 38.5703H183.908C183.908 37.6797 183.527 36.9121 182.766 36.2676C182.016 35.623 181.066 35.3008 179.918 35.3008C178.734 35.3008 177.809 35.5586 177.141 36.0742C176.473 36.5898 176.139 37.2637 176.139 38.0957C176.139 38.8809 176.449 39.4727 177.07 39.8711C177.691 40.2695 178.811 40.6504 180.428 41.0137C182.057 41.377 183.375 41.8105 184.383 42.3145C185.391 42.8184 186.135 43.4277 186.615 44.1426C187.107 44.8457 187.354 45.707 187.354 46.7266C187.354 48.4258 186.674 49.791 185.314 50.8223C183.955 51.8418 182.191 52.3516 180.023 52.3516C178.5 52.3516 177.152 52.082 175.98 51.543C174.809 51.0039 173.889 50.2539 173.221 49.293C172.564 48.3203 172.236 47.2715 172.236 46.1465H175.488C175.547 47.2363 175.98 48.1035 176.789 48.748C177.609 49.3809 178.688 49.6973 180.023 49.6973C181.254 49.6973 182.238 49.4512 182.977 48.959C183.727 48.4551 184.102 47.7871 184.102 46.9551ZM219.855 43.8789C219.539 46.5859 218.537 48.6777 216.85 50.1543C215.174 51.6191 212.941 52.3516 210.152 52.3516C207.129 52.3516 204.703 51.2676 202.875 49.0996C201.059 46.9316 200.15 44.0312 200.15 40.3984V37.9375C200.15 35.5586 200.572 33.4668 201.416 31.6621C202.271 29.8574 203.479 28.4746 205.037 27.5137C206.596 26.541 208.4 26.0547 210.451 26.0547C213.17 26.0547 215.35 26.8164 216.99 28.3398C218.631 29.8516 219.586 31.9492 219.855 34.6328H216.463C216.17 32.5938 215.531 31.1172 214.547 30.2031C213.574 29.2891 212.209 28.832 210.451 28.832C208.295 28.832 206.602 29.6289 205.371 31.2227C204.152 32.8164 203.543 35.084 203.543 38.0254V40.5039C203.543 43.2812 204.123 45.4902 205.283 47.1309C206.443 48.7715 208.066 49.5918 210.152 49.5918C212.027 49.5918 213.463 49.1699 214.459 48.3262C215.467 47.4707 216.135 45.9883 216.463 43.8789H219.855ZM233.162 35.8984C232.67 35.8164 232.137 35.7754 231.562 35.7754C229.43 35.7754 227.982 36.6836 227.221 38.5V52H223.969V32.9805H227.133L227.186 35.1777C228.252 33.4785 229.764 32.6289 231.721 32.6289C232.354 32.6289 232.834 32.7109 233.162 32.875V35.8984ZM243.709 52.3516C241.131 52.3516 239.033 51.5078 237.416 49.8203C235.799 48.1211 234.99 45.8535 234.99 43.0176V42.4199C234.99 40.5332 235.348 38.8516 236.062 37.375C236.789 35.8867 237.797 34.7266 239.086 33.8945C240.387 33.0508 241.793 32.6289 243.305 32.6289C245.777 32.6289 247.699 33.4434 249.07 35.0723C250.441 36.7012 251.127 39.0332 251.127 42.0684V43.4219H238.242C238.289 45.2969 238.834 46.8145 239.877 47.9746C240.932 49.123 242.268 49.6973 243.885 49.6973C245.033 49.6973 246.006 49.4629 246.803 48.9941C247.6 48.5254 248.297 47.9043 248.895 47.1309L250.881 48.6777C249.287 51.127 246.896 52.3516 243.709 52.3516ZM243.305 35.3008C241.992 35.3008 240.891 35.7812 240 36.7422C239.109 37.6914 238.559 39.0273 238.348 40.75H247.875V40.5039C247.781 38.8516 247.336 37.5742 246.539 36.6719C245.742 35.7578 244.664 35.3008 243.305 35.3008ZM266.648 52C266.461 51.625 266.309 50.957 266.191 49.9961C264.68 51.5664 262.875 52.3516 260.777 52.3516C258.902 52.3516 257.361 51.8242 256.154 50.7695C254.959 49.7031 254.361 48.3555 254.361 46.7266C254.361 44.7461 255.111 43.2109 256.611 42.1211C258.123 41.0195 260.244 40.4688 262.975 40.4688H266.139V38.9746C266.139 37.8379 265.799 36.9355 265.119 36.2676C264.439 35.5879 263.438 35.248 262.113 35.248C260.953 35.248 259.98 35.541 259.195 36.127C258.41 36.7129 258.018 37.4219 258.018 38.2539H254.748C254.748 37.3047 255.082 36.3906 255.75 35.5117C256.43 34.6211 257.344 33.918 258.492 33.4023C259.652 32.8867 260.924 32.6289 262.307 32.6289C264.498 32.6289 266.215 33.1797 267.457 34.2812C268.699 35.3711 269.344 36.877 269.391 38.7988V47.5527C269.391 49.2988 269.613 50.6875 270.059 51.7188V52H266.648ZM261.252 49.5215C262.271 49.5215 263.238 49.2578 264.152 48.7305C265.066 48.2031 265.729 47.5176 266.139 46.6738V42.7715H263.59C259.605 42.7715 257.613 43.9375 257.613 46.2695C257.613 47.2891 257.953 48.0859 258.633 48.6602C259.312 49.2344 260.186 49.5215 261.252 49.5215ZM278.9 28.375V32.9805H282.451V35.4941H278.9V47.2891C278.9 48.0508 279.059 48.625 279.375 49.0117C279.691 49.3867 280.23 49.5742 280.992 49.5742C281.367 49.5742 281.883 49.5039 282.539 49.3633V52C281.684 52.2344 280.852 52.3516 280.043 52.3516C278.59 52.3516 277.494 51.9121 276.756 51.0332C276.018 50.1543 275.648 48.9062 275.648 47.2891V35.4941H272.186V32.9805H275.648V28.375H278.9ZM285.053 42.3145C285.053 40.4512 285.416 38.7754 286.143 37.2871C286.881 35.7988 287.9 34.6504 289.201 33.8418C290.514 33.0332 292.008 32.6289 293.684 32.6289C296.273 32.6289 298.365 33.5254 299.959 35.3184C301.564 37.1113 302.367 39.4961 302.367 42.4727V42.7012C302.367 44.5527 302.01 46.2168 301.295 47.6934C300.592 49.1582 299.578 50.3008 298.254 51.1211C296.941 51.9414 295.43 52.3516 293.719 52.3516C291.141 52.3516 289.049 51.4551 287.443 49.6621C285.85 47.8691 285.053 45.4961 285.053 42.543V42.3145ZM288.322 42.7012C288.322 44.8105 288.809 46.5039 289.781 47.7812C290.766 49.0586 292.078 49.6973 293.719 49.6973C295.371 49.6973 296.684 49.0527 297.656 47.7637C298.629 46.4629 299.115 44.6465 299.115 42.3145C299.115 40.2285 298.617 38.541 297.621 37.252C296.637 35.9512 295.324 35.3008 293.684 35.3008C292.078 35.3008 290.783 35.9395 289.799 37.2168C288.814 38.4941 288.322 40.3223 288.322 42.7012ZM315.639 35.8984C315.146 35.8164 314.613 35.7754 314.039 35.7754C311.906 35.7754 310.459 36.6836 309.697 38.5V52H306.445V32.9805H309.609L309.662 35.1777C310.729 33.4785 312.24 32.6289 314.197 32.6289C314.83 32.6289 315.311 32.7109 315.639 32.875V35.8984Z" fill="#00695C"/>
<defs>
<linearGradient id="paint0_linear" x1="17.8289" y1="22.8741" x2="17.4321" y2="23.1783" gradientUnits="userSpaceOnUse">
<stop stop-color="#00695C"/>
<stop offset="1" stop-color="white" stop-opacity="0"/>
</linearGradient>
<linearGradient id="paint1_linear" x1="23.0124" y1="57.1864" x2="22.5525" y2="56.9903" gradientUnits="userSpaceOnUse">
<stop stop-color="#00695C"/>
<stop offset="1" stop-color="white" stop-opacity="0"/>
</linearGradient>
<linearGradient id="paint2_linear" x1="41.9342" y1="49.8897" x2="41.6307" y2="50.287" gradientUnits="userSpaceOnUse">
<stop stop-color="#00695C"/>
<stop offset="1" stop-color="white" stop-opacity="0"/>
</linearGradient>
<linearGradient id="paint3_linear" x1="44.4415" y1="27.0748" x2="44.7546" y2="27.4646" gradientUnits="userSpaceOnUse">
<stop stop-color="#00695C"/>
<stop offset="1" stop-color="white" stop-opacity="0"/>
</linearGradient>
</defs>
</svg>
