<svg width="405" height="82" viewBox="0 0 405 82" fill="none" xmlns="http://www.w3.org/2000/svg">
<line x1="13.3188" y1="15.7263" x2="26.0711" y2="33.2511" stroke="#00695C" stroke-width="1.5"/>
<line x1="26.5125" y1="48.3663" x2="14.3206" y2="66.2855" stroke="#00695C" stroke-width="1.5"/>
<line x1="37.2757" y1="46.8742" x2="54.1637" y2="60.4585" stroke="#00695C" stroke-width="1.5"/>
<line x1="39.229" y1="35.5303" x2="56.4607" y2="22.3846" stroke="#00695C" stroke-width="1.5"/>
<circle cx="32.5" cy="40.0833" r="13" fill="#00695C"/>
<circle cx="32.5" cy="40.0833" r="13" fill="#00695C"/>
<circle cx="32.5" cy="40.0833" r="13" fill="#00695C"/>
<circle cx="57.9583" cy="20.0417" r="7.04167" fill="#00695C"/>
<circle cx="57.9583" cy="20.0417" r="7.04167" fill="#00695C"/>
<circle cx="57.9583" cy="20.0417" r="7.04167" fill="#00695C"/>
<circle cx="53.0833" cy="58.5" r="5.41667" fill="#00695C"/>
<circle cx="53.0833" cy="58.5" r="5.41667" fill="#00695C"/>
<circle cx="53.0833" cy="58.5" r="5.41667" fill="#00695C"/>
<circle cx="9.20833" cy="9.20833" r="9.20833" fill="#00695C"/>
<circle cx="9.20833" cy="9.20833" r="9.20833" fill="#00695C"/>
<circle cx="9.20833" cy="9.20833" r="9.20833" fill="#00695C"/>
<circle cx="11.8791" cy="69.2087" r="10.2917" transform="rotate(9.70324 11.8791 69.2087)" fill="#00695C"/>
<circle cx="11.8791" cy="69.2087" r="10.2917" transform="rotate(9.70324 11.8791 69.2087)" fill="#00695C"/>
<circle cx="11.8791" cy="69.2087" r="10.2917" transform="rotate(9.70324 11.8791 69.2087)" fill="#00695C"/>
<path d="M116.156 52.5234C115 54.1797 113.383 55.4219 111.305 56.25C109.242 57.0625 106.836 57.4688 104.086 57.4688C101.305 57.4688 98.8359 56.8203 96.6797 55.5234C94.5234 54.2109 92.8516 52.3516 91.6641 49.9453C90.4922 47.5391 89.8906 44.75 89.8594 41.5781V38.6016C89.8594 33.4609 91.0547 29.4766 93.4453 26.6484C95.8516 23.8203 99.2266 22.4062 103.57 22.4062C107.133 22.4062 110 23.3203 112.172 25.1484C114.344 26.9609 115.672 29.5391 116.156 32.8828H111.656C110.812 28.3672 108.125 26.1094 103.594 26.1094C100.578 26.1094 98.2891 27.1719 96.7266 29.2969C95.1797 31.4062 94.3984 34.4688 94.3828 38.4844V41.2734C94.3828 45.1016 95.2578 48.1484 97.0078 50.4141C98.7578 52.6641 101.125 53.7891 104.109 53.7891C105.797 53.7891 107.273 53.6016 108.539 53.2266C109.805 52.8516 110.852 52.2188 111.68 51.3281V43.6641H103.781V40.0078H116.156V52.5234ZM138.656 54.4922C136.969 56.4766 134.492 57.4688 131.227 57.4688C128.523 57.4688 126.461 56.6875 125.039 55.125C123.633 53.5469 122.922 51.2188 122.906 48.1406V31.6406H127.242V48.0234C127.242 51.8672 128.805 53.7891 131.93 53.7891C135.242 53.7891 137.445 52.5547 138.539 50.0859V31.6406H142.875V57H138.75L138.656 54.4922ZM154.195 57H149.859V31.6406H154.195V57ZM149.508 24.9141C149.508 24.2109 149.719 23.6172 150.141 23.1328C150.578 22.6484 151.219 22.4062 152.062 22.4062C152.906 22.4062 153.547 22.6484 153.984 23.1328C154.422 23.6172 154.641 24.2109 154.641 24.9141C154.641 25.6172 154.422 26.2031 153.984 26.6719C153.547 27.1406 152.906 27.375 152.062 27.375C151.219 27.375 150.578 27.1406 150.141 26.6719C149.719 26.2031 149.508 25.6172 149.508 24.9141ZM160.102 44.1094C160.102 40.2188 161.023 37.0938 162.867 34.7344C164.711 32.3594 167.125 31.1719 170.109 31.1719C173.078 31.1719 175.43 32.1875 177.164 34.2188V21H181.5V57H177.516L177.305 54.2812C175.57 56.4062 173.156 57.4688 170.062 57.4688C167.125 57.4688 164.727 56.2656 162.867 53.8594C161.023 51.4531 160.102 48.3125 160.102 44.4375V44.1094ZM164.438 44.6016C164.438 47.4766 165.031 49.7266 166.219 51.3516C167.406 52.9766 169.047 53.7891 171.141 53.7891C173.891 53.7891 175.898 52.5547 177.164 50.0859V38.4375C175.867 36.0469 173.875 34.8516 171.188 34.8516C169.062 34.8516 167.406 35.6719 166.219 37.3125C165.031 38.9531 164.438 41.3828 164.438 44.6016ZM198.773 57.4688C195.336 57.4688 192.539 56.3438 190.383 54.0938C188.227 51.8281 187.148 48.8047 187.148 45.0234V44.2266C187.148 41.7109 187.625 39.4688 188.578 37.5C189.547 35.5156 190.891 33.9688 192.609 32.8594C194.344 31.7344 196.219 31.1719 198.234 31.1719C201.531 31.1719 204.094 32.2578 205.922 34.4297C207.75 36.6016 208.664 39.7109 208.664 43.7578V45.5625H191.484C191.547 48.0625 192.273 50.0859 193.664 51.6328C195.07 53.1641 196.852 53.9297 199.008 53.9297C200.539 53.9297 201.836 53.6172 202.898 52.9922C203.961 52.3672 204.891 51.5391 205.688 50.5078L208.336 52.5703C206.211 55.8359 203.023 57.4688 198.773 57.4688ZM198.234 34.7344C196.484 34.7344 195.016 35.375 193.828 36.6562C192.641 37.9219 191.906 39.7031 191.625 42H204.328V41.6719C204.203 39.4688 203.609 37.7656 202.547 36.5625C201.484 35.3438 200.047 34.7344 198.234 34.7344ZM228.469 50.2734C228.469 49.1016 228.023 48.1953 227.133 47.5547C226.258 46.8984 224.719 46.3359 222.516 45.8672C220.328 45.3984 218.586 44.8359 217.289 44.1797C216.008 43.5234 215.055 42.7422 214.43 41.8359C213.82 40.9297 213.516 39.8516 213.516 38.6016C213.516 36.5234 214.391 34.7656 216.141 33.3281C217.906 31.8906 220.156 31.1719 222.891 31.1719C225.766 31.1719 228.094 31.9141 229.875 33.3984C231.672 34.8828 232.57 36.7812 232.57 39.0938H228.211C228.211 37.9062 227.703 36.8828 226.688 36.0234C225.688 35.1641 224.422 34.7344 222.891 34.7344C221.312 34.7344 220.078 35.0781 219.188 35.7656C218.297 36.4531 217.852 37.3516 217.852 38.4609C217.852 39.5078 218.266 40.2969 219.094 40.8281C219.922 41.3594 221.414 41.8672 223.57 42.3516C225.742 42.8359 227.5 43.4141 228.844 44.0859C230.188 44.7578 231.18 45.5703 231.82 46.5234C232.477 47.4609 232.805 48.6094 232.805 49.9688C232.805 52.2344 231.898 54.0547 230.086 55.4297C228.273 56.7891 225.922 57.4688 223.031 57.4688C221 57.4688 219.203 57.1094 217.641 56.3906C216.078 55.6719 214.852 54.6719 213.961 53.3906C213.086 52.0938 212.648 50.6953 212.648 49.1953H216.984C217.062 50.6484 217.641 51.8047 218.719 52.6641C219.812 53.5078 221.25 53.9297 223.031 53.9297C224.672 53.9297 225.984 53.6016 226.969 52.9453C227.969 52.2734 228.469 51.3828 228.469 50.2734ZM276.141 46.1719C275.719 49.7812 274.383 52.5703 272.133 54.5391C269.898 56.4922 266.922 57.4688 263.203 57.4688C259.172 57.4688 255.938 56.0234 253.5 53.1328C251.078 50.2422 249.867 46.375 249.867 41.5312V38.25C249.867 35.0781 250.43 32.2891 251.555 29.8828C252.695 27.4766 254.305 25.6328 256.383 24.3516C258.461 23.0547 260.867 22.4062 263.602 22.4062C267.227 22.4062 270.133 23.4219 272.32 25.4531C274.508 27.4688 275.781 30.2656 276.141 33.8438H271.617C271.227 31.125 270.375 29.1562 269.062 27.9375C267.766 26.7188 265.945 26.1094 263.602 26.1094C260.727 26.1094 258.469 27.1719 256.828 29.2969C255.203 31.4219 254.391 34.4453 254.391 38.3672V41.6719C254.391 45.375 255.164 48.3203 256.711 50.5078C258.258 52.6953 260.422 53.7891 263.203 53.7891C265.703 53.7891 267.617 53.2266 268.945 52.1016C270.289 50.9609 271.18 48.9844 271.617 46.1719H276.141ZM293.883 35.5312C293.227 35.4219 292.516 35.3672 291.75 35.3672C288.906 35.3672 286.977 36.5781 285.961 39V57H281.625V31.6406H285.844L285.914 34.5703C287.336 32.3047 289.352 31.1719 291.961 31.1719C292.805 31.1719 293.445 31.2812 293.883 31.5V35.5312ZM307.945 57.4688C304.508 57.4688 301.711 56.3438 299.555 54.0938C297.398 51.8281 296.32 48.8047 296.32 45.0234V44.2266C296.32 41.7109 296.797 39.4688 297.75 37.5C298.719 35.5156 300.062 33.9688 301.781 32.8594C303.516 31.7344 305.391 31.1719 307.406 31.1719C310.703 31.1719 313.266 32.2578 315.094 34.4297C316.922 36.6016 317.836 39.7109 317.836 43.7578V45.5625H300.656C300.719 48.0625 301.445 50.0859 302.836 51.6328C304.242 53.1641 306.023 53.9297 308.18 53.9297C309.711 53.9297 311.008 53.6172 312.07 52.9922C313.133 52.3672 314.062 51.5391 314.859 50.5078L317.508 52.5703C315.383 55.8359 312.195 57.4688 307.945 57.4688ZM307.406 34.7344C305.656 34.7344 304.188 35.375 303 36.6562C301.812 37.9219 301.078 39.7031 300.797 42H313.5V41.6719C313.375 39.4688 312.781 37.7656 311.719 36.5625C310.656 35.3438 309.219 34.7344 307.406 34.7344ZM338.531 57C338.281 56.5 338.078 55.6094 337.922 54.3281C335.906 56.4219 333.5 57.4688 330.703 57.4688C328.203 57.4688 326.148 56.7656 324.539 55.3594C322.945 53.9375 322.148 52.1406 322.148 49.9688C322.148 47.3281 323.148 45.2812 325.148 43.8281C327.164 42.3594 329.992 41.625 333.633 41.625H337.852V39.6328C337.852 38.1172 337.398 36.9141 336.492 36.0234C335.586 35.1172 334.25 34.6641 332.484 34.6641C330.938 34.6641 329.641 35.0547 328.594 35.8359C327.547 36.6172 327.023 37.5625 327.023 38.6719H322.664C322.664 37.4062 323.109 36.1875 324 35.0156C324.906 33.8281 326.125 32.8906 327.656 32.2031C329.203 31.5156 330.898 31.1719 332.742 31.1719C335.664 31.1719 337.953 31.9062 339.609 33.375C341.266 34.8281 342.125 36.8359 342.188 39.3984V51.0703C342.188 53.3984 342.484 55.25 343.078 56.625V57H338.531ZM331.336 53.6953C332.695 53.6953 333.984 53.3438 335.203 52.6406C336.422 51.9375 337.305 51.0234 337.852 49.8984V44.6953H334.453C329.141 44.6953 326.484 46.25 326.484 49.3594C326.484 50.7188 326.938 51.7812 327.844 52.5469C328.75 53.3125 329.914 53.6953 331.336 53.6953ZM354.867 25.5V31.6406H359.602V34.9922H354.867V50.7188C354.867 51.7344 355.078 52.5 355.5 53.0156C355.922 53.5156 356.641 53.7656 357.656 53.7656C358.156 53.7656 358.844 53.6719 359.719 53.4844V57C358.578 57.3125 357.469 57.4688 356.391 57.4688C354.453 57.4688 352.992 56.8828 352.008 55.7109C351.023 54.5391 350.531 52.875 350.531 50.7188V34.9922H345.914V31.6406H350.531V25.5H354.867ZM363.07 44.0859C363.07 41.6016 363.555 39.3672 364.523 37.3828C365.508 35.3984 366.867 33.8672 368.602 32.7891C370.352 31.7109 372.344 31.1719 374.578 31.1719C378.031 31.1719 380.82 32.3672 382.945 34.7578C385.086 37.1484 386.156 40.3281 386.156 44.2969V44.6016C386.156 47.0703 385.68 49.2891 384.727 51.2578C383.789 53.2109 382.438 54.7344 380.672 55.8281C378.922 56.9219 376.906 57.4688 374.625 57.4688C371.188 57.4688 368.398 56.2734 366.258 53.8828C364.133 51.4922 363.07 48.3281 363.07 44.3906V44.0859ZM367.43 44.6016C367.43 47.4141 368.078 49.6719 369.375 51.375C370.688 53.0781 372.438 53.9297 374.625 53.9297C376.828 53.9297 378.578 53.0703 379.875 51.3516C381.172 49.6172 381.82 47.1953 381.82 44.0859C381.82 41.3047 381.156 39.0547 379.828 37.3359C378.516 35.6016 376.766 34.7344 374.578 34.7344C372.438 34.7344 370.711 35.5859 369.398 37.2891C368.086 38.9922 367.43 41.4297 367.43 44.6016ZM403.852 35.5312C403.195 35.4219 402.484 35.3672 401.719 35.3672C398.875 35.3672 396.945 36.5781 395.93 39V57H391.594V31.6406H395.812L395.883 34.5703C397.305 32.3047 399.32 31.1719 401.93 31.1719C402.773 31.1719 403.414 31.2812 403.852 31.5V35.5312Z" fill="#00695C"/>
</svg>
